/* XPM */
static char * umanipulator_xpm[] = {
"32 32 3 1",
" 	c None",
".	c #F00B0B",
"+	c #F10C0C",
"                                ",
"                                ",
"        ..+.        +.++        ",
"        +++.        ..++        ",
"        +++.        ..++        ",
"        +++.        ..++        ",
"        +++.        ..++        ",
"        +++.        ..++        ",
"        +++.        ..++        ",
"        +++.        ..++        ",
"        +++.        ..++        ",
"        +++.        ..++        ",
"        +++.        ..++        ",
"        +++.        ..++        ",
"        +++.        ..++        ",
"        ++++        +.++        ",
"        ++++        .++.        ",
"        +++.        ..+.        ",
"        +++.+     .++.++   +    ",
"        +++++.+ ...  .+.+  .    ",
"        +..+++...+   .++.+.+    ",
"        .. +..+.      ++++.     ",
"        ++                      ",
"        .+                      ",
"        .+                      ",
"        ++                      ",
"       ..++                     ",
"       ...+                     ",
"       ++..                     ",
"       ..++                     ",
"        +.+                     ",
"                                "};
